<?xml version="1.0" encoding="utf-8"?>
<?xml-stylesheet type="text/xsl" href="rss1.xsl"?>
<rss version="2.0" xmlns:atom="http://www.w3.org/2005/Atom" xmlns:content="http://purl.org/rss/1.0/modules/content/" xmlns:dc="http://purl.org/dc/elements/1.1/" xmlns:media="http://search.yahoo.com/mrss/">
<channel>
 <title>Getty</title>
 <link>http://www.gettyimg.com/</link>
 <atom:link href="http://www.gettyimg.com/" rel="self" type="application/rss+xml" />

 
                <item>
                <title><![CDATA[【Requests】[REQ AUD] - The Weeknd - The Dawn FM Experience (Amazon Music purchase)]]></title>
                <link><![CDATA[https://sharemania.us/threads/the-weeknd-the-dawn-fm-experience-amazon-music-purchase.237599/]]></link>
                <description><![CDATA[<article>
<blockquote class="messageText SelectQuoteContainer ugc baseHtml">
<span data-s9e-mediaembed="amazon" style="display:inline-block;width:100%;max-width:120px"><span style="display:block;overflow:hidden;position:relative;padding-bottom:200%"><iframe allowfullscreen="" loading="lazy" scrolling="no" style="background:url(https://www.amazon.com/favicon.ico) center no-repeat;border:0;height:100%;left:0;position:absolute;width:100%" src="//ws-na.assoc-amazon.com/widgets/cm?l=as1&amp;f=ifr&amp;o=1&amp;t=&amp;asins=B09TV61KQD"></iframe></span></span><br>
<img src="https://www.amazon.com/Dawn-FM-Experience-Weeknd/dp/B09TV61KQD" class="bbCodeImage LbImage" alt="[​IMG]" data-url="https://www.amazon.com/Dawn-FM-Experience-Weeknd/dp/B09TV61KQD" style="">
<div class="messageTextEndMarker">&nbsp;</div>
</blockquote>
</article>]]></description>
                <author><![CDATA[Mohammed]]></author>
                </item>

                
                <item>
                <title><![CDATA[【HD Live Performances】WEB-DL - U2 - Live at the Rosebowl 1080p AMZN WEB-DL DD+ 2.0 H.264.mkv]]></title>
                <link><![CDATA[https://sharemania.us/threads/u2-live-at-the-rosebowl-1080p-amzn-web-dl-dd-2-0-h-264-mkv.237600/]]></link>
                <description><![CDATA[<article>
<blockquote class="messageText SelectQuoteContainer ugc baseHtml">
<img src="https://images.fanart.tv/fanart/u2-360-degrees-at-the-rose-bowl-55eaa5441eb66.png" class="bbCodeImage LbImage" alt="[​IMG]" data-url="https://images.fanart.tv/fanart/u2-360-degrees-at-the-rose-bowl-55eaa5441eb66.png" style=""> <br>
<img src="https://i.postimg.cc/sxfDHgdY/U2-Live-at-the-Rosebowl-1080p-AMZN-WEB-DL-DD-2-0-H-264-mkv.jpg" class="bbCodeImage LbImage" alt="[​IMG]" data-url="https://i.postimg.cc/sxfDHgdY/U2-Live-at-the-Rosebowl-1080p-AMZN-WEB-DL-DD-2-0-H-264-mkv.jpg" style=""> <br>
<div class="ToggleTriggerAnchor bbCodeSpoilerContainer">
<button type="button" class="button bbCodeSpoilerButton ToggleTrigger Tooltip JsOnly" data-target="> .SpoilerTarget"><span>Spoiler: <span class="SpoilerTitle">Media Info</span></span></button>
<div class="SpoilerTarget bbCodeSpoilerText">General<br>
Unique ID : 60395816592109797476649291666016039195 (0x2D6FCFA8C64DB1D5E1B55F45E791F11B)<br>
Complete name : U2 - Live at the Rosebowl 1080p AMZN WEB-DL DD+ 2.0 H.264.mkv<br>
Format : Matroska<br>
Format version : Version 4<br>
File size : 10.0 GiB<br>
Duration : 2 h 10 min<br>
Overall bit rate : 11.0 Mb/s<br>
Frame rate : 25.000 FPS<br>
Encoded date : 2024-02-12 13:41:01 UTC<br>
Writing application : mkvmerge v80.0 ('Roundabout') 64-bit<br>
Writing library : libebml v1.4.4 + libmatroska v1.7.1<br>
Comment : U2's 360° concert at the famous Pasadena Rose Bowl was U2's biggest ever show in the United States with a box office attendance in excess of 97,000. The first live streaming of a full-length stadium concert, U2360° at the Rose Bowl streamed across seven continents, making history with over 10 million views in one week. Shot entirely in HD, this ground breaking concert was filmed with 28 cameras...<br>
<br>
Video<br>
ID : 1<br>
Format : AVC<br>
Format/Info : Advanced Video Codec<br>
Format profile : High@L4<br>
Format settings : CABAC / 4 Ref Frames<br>
Format settings, CABAC : Yes<br>
Format settings, Reference frames : 4 frames<br>
Codec ID : V_MPEG4/ISO/AVC<br>
Duration : 2 h 10 min<br>
Bit rate : 10.8 Mb/s<br>
Width : 1 920 pixels<br>
Height : 1 080 pixels<br>
Display aspect ratio : 16:9<br>
Frame rate mode : Constant<br>
Frame rate : 25.000 FPS<br>
Color space : YUV<br>
Chroma subsampling : 4:2:0<br>
Bit depth : 8 bits<br>
Scan type : Progressive<br>
Bits/(Pixel*Frame) : 0.209<br>
Stream size : 9.82 GiB (98%)<br>
Default : Yes<br>
Forced : No<br>
Color range : Limited<br>
Color primaries : BT.709<br>
Transfer characteristics : BT.709<br>
Matrix coefficients : BT.709<br>
<br>
Audio<br>
ID : 2<br>
Format : E-AC-3<br>
Format/Info : Enhanced AC-3<br>
Commercial name : Dolby Digital Plus<br>
Codec ID : A_EAC3<br>
Duration : 2 h 10 min<br>
Bit rate mode : Constant<br>
Bit rate : 224 kb/s<br>
Channel(s) : 2 channels<br>
Channel layout : L R<br>
Sampling rate : 48.0 kHz<br>
Frame rate : 31.250 FPS (1536 SPF)<br>
Compression mode : Lossy<br>
Delay relative to video : -80 ms<br>
Stream size : 208 MiB (2%)<br>
Language : English<br>
Service kind : Complete Main<br>
Default : Yes<br>
Forced : No<br>
<br>
Text<br>
ID : 3<br>
Format : UTF-8<br>
Codec ID : S_TEXT/UTF8<br>
Codec ID/Info : UTF-8 Plain Text<br>
Duration : 2 h 3 min<br>
Bit rate : 34 b/s<br>
Frame rate : 0.117 FPS<br>
Count of elements : 869<br>
Stream size : 31.1 KiB (0%)<br>
Title : English [CC]<br>
Language : English<br>
Default : No<br>
Forced : No</div>
</div>Ripped by me <img src="styles/default/xenforo/smilies/big_smile-48.png" class="mceSmilie" alt=":)" title="Smile    :)"><br>
<br>
<div class="bbCodeBlock bbCodeVfcHH HiddenContent">
<div class="attribution type">Hidden Content:</div>
<blockquote>You must either reply or click 'Like' to see the hidden information contained here.</blockquote>
</div>
<div class="messageTextEndMarker">&nbsp;</div>
</blockquote>
</article>]]></description>
                <author><![CDATA[szymek04sawicki]]></author>
                </item>

                </channel></rss>